<?xml version="1.0" encoding="UTF-8"?><svg xmlns="http://www.w3.org/2000/svg" xmlns:xlink="http://www.w3.org/1999/xlink" height="50" preserveAspectRatio="xMidYMid meet" version="1.0" viewBox="62.4 62.4 470.6 470.6" width="50" zoomAndPan="magnify"><g><g id="change1_1"><path d="M 487.390625 158.535156 C 459.902344 121.105469 421.617188 92.109375 377.117188 76.140625 L 377.117188 213.671875 L 487.390625 158.535156" fill="#273376"/></g><g id="change1_2"><path d="M 218.546875 213.675781 L 218.546875 76.007812 C 173.9375 91.929688 135.546875 120.929688 107.992188 158.398438 L 218.542969 213.671875 L 218.546875 213.675781" fill="#273376"/></g><g id="change1_3"><path d="M 218.542969 381.605469 L 107.992188 436.882812 C 135.546875 474.351562 173.9375 503.351562 218.546875 519.273438 L 218.546875 381.605469 L 218.542969 381.605469" fill="#273376"/></g><g id="change1_4"><path d="M 377.117188 519.140625 C 421.617188 503.167969 459.902344 474.171875 487.390625 436.742188 L 377.117188 381.605469 L 377.117188 519.140625" fill="#273376"/></g><g id="change2_1"><path d="M 218.546875 213.675781 L 218.542969 213.671875 L 107.992188 158.398438 C 100.148438 169.0625 93.183594 180.414062 87.203125 192.347656 L 138.117188 217.78125 L 86.078125 217.78125 L 77.804688 213.679688 C 77.214844 215.230469 76.632812 216.789062 76.074219 218.355469 L 218.546875 218.355469 L 218.546875 213.675781" fill="#fff"/></g><g id="change2_2"><path d="M 377.117188 218.355469 L 403.21875 218.355469 L 496.425781 171.753906 C 493.5625 167.238281 490.546875 162.835938 487.390625 158.535156 L 377.117188 213.671875 L 377.117188 218.355469" fill="#fff"/></g><g id="change2_3"><path d="M 509.207031 377.25 L 517.554688 381.390625 C 518.117188 379.90625 518.671875 378.421875 519.207031 376.925781 L 377.117188 376.925781 L 377.117188 381.605469 L 487.390625 436.742188 C 495.234375 426.058594 502.199219 414.6875 508.179688 402.734375 L 457.164062 377.25 L 509.207031 377.25" fill="#fff"/></g><g id="change2_4"><path d="M 138.101562 376.925781 L 76.074219 376.925781 C 79.214844 385.703125 82.867188 394.242188 86.988281 402.503906 L 138.09375 376.929688 L 138.101562 376.925781" fill="#fff"/></g><g id="change2_5"><path d="M 218.546875 381.605469 L 218.546875 376.925781 L 191.5625 376.925781 L 98.734375 423.339844 C 101.664062 427.964844 104.753906 432.480469 107.992188 436.882812 L 218.542969 381.605469 L 218.546875 381.605469" fill="#fff"/></g><g id="change2_6"><path d="M 519.207031 218.355469 C 516.039062 209.503906 512.355469 200.902344 508.195312 192.578125 L 456.691406 218.355469 L 519.207031 218.355469" fill="#fff"/></g><g id="change2_7"><path d="M 377.117188 376.925781 L 519.207031 376.925781 C 522.878906 366.660156 525.871094 356.074219 528.101562 345.210938 L 345.402344 345.210938 L 345.402344 528.058594 C 356.265625 525.820312 366.855469 522.820312 377.117188 519.140625 L 377.117188 376.925781" fill="#fff"/></g><g id="change2_8"><path d="M 345.402344 250.070312 L 528.101562 250.070312 C 525.871094 239.203125 522.878906 228.617188 519.207031 218.355469 L 456.691406 218.355469 L 456.683594 218.359375 L 403.214844 218.359375 L 403.21875 218.355469 L 377.117188 218.355469 L 377.117188 76.140625 C 366.855469 72.457031 356.265625 69.460938 345.402344 67.21875 L 345.402344 250.070312" fill="#fff"/></g><g id="change2_9"><path d="M 250.261719 345.210938 L 67.179688 345.210938 C 69.410156 356.074219 72.402344 366.660156 76.074219 376.925781 L 138.101562 376.925781 L 138.601562 376.675781 L 192.0625 376.675781 L 191.5625 376.925781 L 218.546875 376.925781 L 218.546875 519.273438 C 228.808594 522.9375 239.394531 525.921875 250.261719 528.144531 L 250.261719 345.210938" fill="#fff"/></g><g id="change2_10"><path d="M 250.261719 250.070312 L 250.261719 67.136719 C 239.394531 69.359375 228.808594 72.34375 218.546875 76.007812 L 218.546875 218.355469 L 76.074219 218.355469 C 72.402344 228.617188 69.410156 239.203125 67.179688 250.070312 L 250.261719 250.070312" fill="#fff"/></g><g id="change3_1"><path d="M 345.402344 345.210938 L 528.101562 345.210938 C 531.257812 329.847656 532.914062 313.9375 532.914062 297.640625 C 532.914062 281.34375 531.257812 265.433594 528.101562 250.070312 L 345.402344 250.070312 L 345.402344 67.21875 C 329.980469 64.039062 314.003906 62.363281 297.640625 62.363281 C 281.410156 62.363281 265.566406 64.007812 250.261719 67.136719 L 250.261719 250.070312 L 67.179688 250.070312 C 64.023438 265.433594 62.363281 281.34375 62.363281 297.640625 C 62.363281 313.9375 64.023438 329.847656 67.179688 345.210938 L 250.261719 345.210938 L 250.261719 528.144531 C 265.566406 531.273438 281.410156 532.914062 297.640625 532.914062 C 314.003906 532.914062 329.980469 531.242188 345.402344 528.058594 L 345.402344 345.210938" fill="#d21d2c"/></g><g id="change3_2"><path d="M 138.117188 217.78125 L 87.203125 192.347656 C 83.730469 199.269531 80.59375 206.386719 77.804688 213.679688 L 86.078125 217.78125 L 138.117188 217.78125" fill="#d21d2c"/></g><g id="change3_3"><path d="M 403.214844 218.359375 L 456.683594 218.359375 L 456.691406 218.355469 L 508.195312 192.578125 C 504.617188 185.421875 500.691406 178.472656 496.425781 171.753906 L 403.21875 218.355469 L 403.214844 218.359375" fill="#d21d2c"/></g><g id="change3_4"><path d="M 509.207031 377.25 L 457.164062 377.25 L 508.179688 402.734375 C 511.640625 395.808594 514.773438 388.6875 517.554688 381.390625 L 509.207031 377.25" fill="#d21d2c"/></g><g id="change3_5"><path d="M 191.5625 376.925781 L 192.0625 376.675781 L 138.601562 376.675781 L 138.09375 376.929688 L 86.988281 402.503906 C 90.558594 409.664062 94.480469 416.617188 98.734375 423.339844 L 191.5625 376.925781" fill="#d21d2c"/></g></g></svg>